<svg width="35" height="42" viewBox="0 0 35 42" fill="none" xmlns="http://www.w3.org/2000/svg">
<path d="M8.316 11.7073C8.316 10.6061 8.34284 9.54181 8.43347 8.53573C8.58284 6.55599 8.98891 4.801 10 3.45619C11.2962 1.62733 13.5636 0.510925 17.5064 0.510925C21.4497 0.510925 23.7175 1.62837 25.0137 3.45773C26.0238 4.80204 26.4299 6.55644 26.5793 8.53518C26.6704 9.54125 26.6968 10.6061 26.6968 11.7073C26.6968 19.6071 20.2487 22.9043 17.5064 22.9043C14.7636 22.9043 8.31549 19.6071 8.316 11.7073ZM14.5059 4.61267L15.1757 6.30231C16.9049 5.81421 18.1074 5.81421 19.8365 6.30231L20.5064 4.61267C18.3444 3.959 16.6684 3.959 14.5064 4.61267H14.5059ZM9.65372 11.7073C9.65372 15.5691 11.3606 17.9615 12.793 19.2886C14.597 20.961 16.6006 21.5676 17.5069 21.5676C18.4127 21.5676 20.4157 20.961 22.2203 19.2886C23.6522 17.9615 25.3595 15.5691 25.3595 11.7073C25.3595 11.1352 25.3509 10.561 25.3297 9.99495C25.2233 10.2263 24.7737 11.1159 24.0775 11.199C23.2775 11.2952 21.9484 8.36709 17.5064 8.36051C13.0638 8.36709 11.7352 11.2952 10.9352 11.199C10.2385 11.1159 9.78891 10.2263 9.68309 9.99495C9.66251 10.5655 9.65272 11.1364 9.65372 11.7073ZM34.5398 34.7048C34.4927 34.8375 33.7565 36.7423 30.0765 38.276C29.8626 38.0043 29.5764 37.7986 29.2507 37.6825C29.6514 37.5396 29.9896 37.2613 30.2071 36.8957C30.3669 36.6237 30.4535 36.3149 30.4584 35.9994C30.4633 35.6839 30.3863 35.3726 30.235 35.0957C29.7683 34.249 29.0829 33.5431 28.2504 33.0517C27.4178 32.5602 26.4686 32.3013 25.5018 32.3018H25.4993C24.7909 32.3009 24.0893 32.4403 23.4351 32.7121C22.7808 32.9838 22.1869 33.3825 21.6876 33.8851C21.4395 34.1342 21.2173 34.404 21.0244 34.6926H13.9844C13.4923 33.9548 12.8251 33.3504 12.0425 32.9332C11.2599 32.516 10.3862 32.2991 9.49929 32.3018C8.53161 32.3029 7.58202 32.5641 6.75001 33.0583C5.918 33.5524 5.23418 34.2612 4.77018 35.1104C4.61913 35.3876 4.54266 35.6992 4.54826 36.0148C4.55385 36.3305 4.64131 36.6392 4.80207 36.9109C5.02096 37.276 5.36024 37.5536 5.76157 37.6957C5.44049 37.8108 5.15808 38.0136 4.94638 38.281C1.25777 36.7463 0.520051 34.8375 0.472456 34.7043C0.436577 34.6024 0.426828 34.493 0.444102 34.3863C0.61676 33.3129 1.59195 27.8815 3.82233 26.3807C5.1398 25.4931 9.81271 22.9793 11.7606 21.9403C11.8708 21.881 11.9958 21.8552 12.1205 21.866C12.2452 21.8768 12.3639 21.9237 12.4623 22.001C13.4947 22.8112 14.6259 23.357 15.8238 23.6233C16.0355 23.6704 16.2092 23.8207 16.2861 24.0233L17.5064 27.2354L18.7266 24.0233C18.8031 23.8207 18.9768 23.6704 19.1884 23.6233C20.3869 23.357 21.5175 22.8107 22.5504 22.001C22.6488 21.9238 22.7675 21.877 22.892 21.8662C23.0166 21.8554 23.1416 21.8812 23.2517 21.9403L23.2851 21.958C25.2568 23.0091 29.8724 25.4734 31.196 26.3843C33.1337 27.7185 34.0993 31.4724 34.5687 34.3863C34.5859 34.4932 34.5763 34.6021 34.5403 34.7043L34.5398 34.7048ZM28.8421 39.28C28.8623 39.3141 28.8733 39.3528 28.874 39.3924C28.8748 39.432 28.8651 39.4711 28.8461 39.5058C28.5191 40.1043 28.0372 40.6039 27.4509 40.9522C26.8646 41.3006 26.1955 41.485 25.5135 41.4861H25.5084C23.9104 41.4861 22.5413 40.4942 21.9793 39.0952H13.0365C12.8463 39.5728 12.5609 40.0065 12.1975 40.3701C11.8456 40.7244 11.427 41.0056 10.9659 41.1973C10.5048 41.389 10.0103 41.4875 9.51094 41.4871H9.50537C8.8243 41.4871 8.15572 41.3043 7.56942 40.9577C6.98312 40.6112 6.50059 40.1137 6.1722 39.517C6.15269 39.4822 6.14267 39.4429 6.14313 39.403C6.14359 39.3631 6.15451 39.324 6.17481 39.2897C6.19511 39.2553 6.22408 39.2268 6.25881 39.2072C6.29353 39.1876 6.33281 39.1774 6.37271 39.1777L9.76359 39.1727C9.82334 39.0304 9.93777 38.6339 9.93574 37.6886C9.93473 36.7433 9.81929 36.3469 9.75904 36.2051L6.36764 36.2102C6.32797 36.2101 6.28897 36.1998 6.25448 36.1802C6.22 36.1606 6.1912 36.1323 6.17093 36.0982C6.15066 36.0641 6.1396 36.0253 6.13885 35.9856C6.13809 35.9459 6.14767 35.9067 6.16663 35.8719C6.49367 35.2734 6.97553 34.7738 7.56182 34.4253C8.14811 34.0769 8.81727 33.8924 9.49929 33.8911C11.1008 33.8911 12.4714 34.8835 13.0325 36.2825H21.9757C22.1659 35.8048 22.4514 35.3709 22.8147 35.0071C23.1667 34.6529 23.5853 34.3719 24.0464 34.1804C24.5075 33.9888 25.002 33.8905 25.5013 33.8911C26.1832 33.8902 26.8528 34.0725 27.4401 34.4189C28.0274 34.7653 28.5109 35.2631 28.84 35.8603C28.8588 35.8952 28.8682 35.9343 28.8673 35.9739C28.8665 36.0135 28.8555 36.0522 28.8353 36.0864C28.8152 36.1205 28.7866 36.1488 28.7523 36.1686C28.718 36.1884 28.6792 36.1991 28.6395 36.1995L25.2487 36.2051C25.1889 36.3469 25.075 36.7448 25.0765 37.6892C25.0775 38.634 25.193 39.0304 25.2532 39.1727L28.6451 39.1676C28.7261 39.1676 28.8011 39.2107 28.8426 39.28H28.8421Z" fill="#F5D300"/>
</svg>
