<svg width="20" height="20" viewBox="0 0 20 20" fill="none" xmlns="http://www.w3.org/2000/svg">
<path d="M10 0C4.47714 0 0 4.47714 0 10C0 15.5229 4.47714 20 10 20C15.5229 20 20 15.5229 20 10C19.9926 4.48023 15.5198 0.00741573 10 0ZM7.52809 1.01124C6.53809 1.94427 5.78736 3.10202 5.33933 4.38652C4.59511 4.20579 3.86629 3.96685 3.15955 3.67191C4.33916 2.395 5.8523 1.47343 7.52809 1.01124ZM2.70112 4.20225C3.48129 4.55528 4.29028 4.84096 5.1191 5.05618C4.64989 6.5477 4.40006 8.09949 4.37753 9.66292V9.64944H0.692135C0.761405 7.66545 1.46556 5.75607 2.70112 4.20225ZM2.70112 15.7618C1.46556 14.208 0.761405 12.2986 0.692135 10.3146L4.37753 10.3236C4.39876 11.8915 4.6486 13.448 5.1191 14.9438C4.29135 15.1474 3.48247 15.4211 2.70112 15.7618ZM3.15955 16.3191V16.2921C3.86629 15.9971 4.59511 15.7582 5.33933 15.5775C5.78219 16.8749 6.53326 18.0455 7.52809 18.9888C5.85129 18.524 4.33803 17.5993 3.15955 16.3191ZM9.66292 19.2944C8.15281 19.1011 6.83146 17.636 5.99101 15.4607C7.20028 15.2172 8.42949 15.0863 9.66292 15.0697V19.2944ZM9.66292 14.3685C8.3536 14.3852 7.04882 14.5267 5.76629 14.791C5.31646 13.3483 5.07725 11.8481 5.05618 10.3371V10.3236H9.66292V14.3685ZM9.66292 9.64944H5.05618C5.07337 8.12477 5.31258 6.61073 5.76629 5.15506C7.04792 5.42843 8.3527 5.57893 9.66292 5.60449V9.64944ZM9.66292 4.93034C8.42966 4.91506 7.20045 4.78567 5.99101 4.54382C6.83146 2.35955 8.15281 0.898876 9.66292 0.705618V4.93034ZM17.2989 4.22921C18.5344 5.78303 19.2386 7.69242 19.3079 9.6764H15.6225C15.6021 8.10545 15.3522 6.5459 14.8809 5.04719C15.7087 4.8436 16.5175 4.56994 17.2989 4.22921ZM16.836 3.6809C16.1292 3.97584 15.4004 4.21478 14.6562 4.39551C14.2107 3.1082 13.4615 1.9473 12.4719 1.01124C14.1471 1.47669 15.6587 2.4014 16.836 3.6809ZM10.3371 0.705618C11.8472 0.898876 13.1685 2.36405 14.009 4.53933C12.7997 4.7827 11.5705 4.9136 10.3371 4.93034V0.705618ZM10.3371 5.60449C11.6464 5.58787 12.9512 5.4464 14.2337 5.18202C14.6874 6.6377 14.9266 8.15174 14.9438 9.6764H10.3371V5.60449ZM10.3371 10.3506H14.9438C14.9266 11.8752 14.6874 13.3893 14.2337 14.8449C12.9521 14.5715 11.6473 14.4211 10.3371 14.3955V10.3506ZM10.3371 19.2944V15.0697C11.5703 15.0849 12.7996 15.2143 14.009 15.4562C13.1685 17.6404 11.8472 19.1011 10.3371 19.2944ZM12.4719 18.9888C13.4625 18.0544 14.2133 16.8951 14.6607 15.609C15.4049 15.7897 16.1337 16.0286 16.8405 16.3236C15.6614 17.6021 14.1482 18.5253 12.4719 18.9888ZM17.2989 15.7978C16.5187 15.4447 15.7098 15.159 14.8809 14.9438C15.3501 13.4523 15.5999 11.9005 15.6225 10.3371V10.3506H19.3079C19.2386 12.3346 18.5344 14.2439 17.2989 15.7978Z" fill="#F9D648"/>
</svg>
