<svg width="140" height="44" viewBox="0 0 140 44" fill="none" xmlns="http://www.w3.org/2000/svg">
<path d="M0 22C0 9.78814 9.89233 0 22.2342 0C34.4818 0 44.4684 9.78814 44.4684 22C44.4684 34.1186 34.576 44 22.2342 44C19.7847 44 17.5236 43.6271 15.2624 42.8814C16.8641 33.839 22.611 26.4746 30.2423 23.3051C31.1844 24.3305 32.5034 24.983 34.0108 24.983C36.7429 24.983 38.9098 22.839 38.9098 20.1356C38.9098 17.4322 36.7429 15.2881 34.0108 15.2881C31.2786 15.2881 29.1117 17.4322 29.1117 20.1356C19.3136 23.0254 11.4939 29.7373 7.4428 38.4068C6.12382 37.2881 4.99327 35.983 4.05114 34.5847C4.23957 26.1017 8.47914 18.7373 14.7914 14.4492C15.7335 15.4746 17.0525 16.1271 18.4657 16.1271C21.1978 16.1271 23.3647 13.9831 23.3647 11.2797C23.3647 8.57627 21.1978 6.4322 18.4657 6.4322C15.7335 6.4322 13.5666 8.57627 13.5666 11.2797C13.5666 11.4661 13.5666 11.5593 13.5666 11.7458C7.63122 13.6102 2.82638 17.6186 0 22.839C0 22.5593 0 22.2797 0 22Z" fill="#F2CA31"/>
<path d="M131.804 28.1526V26.8475V10.9068C131.804 10.7204 131.709 10.6271 131.427 10.6271H127.564C127.376 10.6271 127.281 10.7204 127.281 10.9068V29.3644C127.281 32.7204 128.6 33.2797 131.521 33.2797C131.615 33.2797 131.709 33.2797 131.804 33.1865C131.898 33.0932 131.898 33 131.898 33V28.1526H131.804Z" fill="white"/>
<path d="M58.1292 28.1526V26.8475V10.9068C58.1292 10.7204 58.035 10.6271 57.7524 10.6271H53.7955C53.607 10.6271 53.5128 10.7204 53.5128 10.9068V29.3644C53.5128 32.7204 54.8318 33.2797 57.7524 33.2797C57.8466 33.2797 57.9408 33.2797 58.035 33.1865C58.1292 33.0932 58.1292 33 58.1292 33V28.1526Z" fill="white"/>
<path d="M70.6596 33.2807C70.4712 33.2807 70.3769 33.1874 70.3769 33.001V20.8824C70.3769 20.7891 70.2827 20.6959 70.1885 20.6959H69.2464C69.058 20.6959 68.8695 20.6027 68.8695 20.4163V17.7129C68.8695 17.5264 68.9638 17.4332 69.2464 17.4332H70.1885C70.2827 17.4332 70.3769 17.34 70.3769 17.2468V16.1281C70.3769 12.3061 72.167 10.7213 75.9355 10.7213H78.385C78.5734 10.7213 78.6677 10.8146 78.6677 11.001V13.8908C78.6677 14.0773 78.5734 14.1705 78.385 14.1705H76.6892C75.276 14.1705 74.8991 14.5434 74.8991 15.8485V17.1535C74.8991 17.2468 74.9934 17.34 75.0876 17.34H77.1603C77.3487 17.34 77.4429 17.4332 77.4429 17.6196V20.323C77.4429 20.5095 77.3487 20.6027 77.1603 20.6027H75.0876C74.9934 20.6027 74.8991 20.6959 74.8991 20.7891V32.9078C74.8991 33.0942 74.8049 33.1874 74.6165 33.1874H70.6596V33.2807Z" fill="white"/>
<path d="M61.9919 14.0763C61.8035 14.0763 61.7093 13.9831 61.7093 13.7966V10.9068C61.7093 10.7204 61.8035 10.6271 61.9919 10.6271H65.9489C66.1373 10.6271 66.2315 10.7204 66.2315 10.9068V13.7966C66.2315 13.9831 66.1373 14.0763 65.9489 14.0763H61.9919ZM61.9919 33.2797C61.8035 33.2797 61.7093 33.1865 61.7093 33V17.6187C61.7093 17.4322 61.8035 17.339 61.9919 17.339H65.9489C66.1373 17.339 66.2315 17.4322 66.2315 17.6187V32.9068C66.2315 33.0932 66.1373 33.1865 65.9489 33.1865H61.9919V33.2797Z" fill="white"/>
<path d="M95.9086 29.0848C95.6259 28.1526 95.4375 26.8475 95.4375 25.2627C95.4375 23.678 95.5317 22.4661 95.9086 21.4407C96.8507 18.5509 99.3944 16.9661 102.786 16.9661C105.424 16.9661 107.591 18.178 108.816 19.9492C108.91 20.1356 108.91 20.3221 108.721 20.4153L105.895 22.2797C105.707 22.3729 105.518 22.3729 105.424 22.1865C104.765 21.2543 103.917 20.7882 102.88 20.7882C101.561 20.7882 100.808 21.3475 100.431 22.4661C100.242 23.0254 100.148 23.9577 100.148 25.1695C100.148 26.3814 100.242 27.3136 100.431 27.8729C100.808 28.9915 101.656 29.5509 102.88 29.5509C103.917 29.5509 104.765 29.0848 105.424 28.1526C105.518 27.9661 105.707 27.9661 105.895 28.0593L108.721 29.9238C108.91 30.017 108.91 30.2034 108.816 30.3899C107.591 32.161 105.424 33.3729 102.786 33.3729C99.3944 33.5593 96.8507 31.9746 95.9086 29.0848Z" fill="white"/>
<path d="M110.417 28.9915C110.04 27.8729 109.852 26.661 109.852 25.2627C109.852 23.7712 109.946 22.5593 110.323 21.4407C111.265 18.6441 113.809 16.9661 117.201 16.9661C120.687 16.9661 123.136 18.6441 124.078 21.4407C124.455 22.5593 124.455 24.1441 124.455 26.2882C124.455 26.4746 124.361 26.5678 124.078 26.5678H114.657C114.563 26.5678 114.468 26.661 114.468 26.7543C114.468 27.1271 114.468 27.4068 114.563 27.5932C115.034 28.9915 116.07 29.6441 117.86 29.6441C119.179 29.6441 120.121 29.2712 120.781 28.8051C121.346 28.4322 121.346 28.2458 121.723 28.5254L124.172 30.2966C124.361 30.4831 124.361 30.5763 124.172 30.7627C122.477 32.5339 120.215 33.3729 117.389 33.3729C113.809 33.5593 111.265 31.8814 110.417 28.9915ZM119.839 23.5848C119.933 23.5848 120.027 23.4915 120.027 23.3983C120.027 22.9322 119.933 22.5593 119.839 22.1865C119.462 21.0678 118.614 20.4153 117.295 20.4153C116.07 20.4153 114.94 20.9746 114.563 22.1865C114.468 22.5593 114.374 22.9322 114.374 23.3983C114.374 23.4915 114.468 23.5848 114.563 23.5848H119.839Z" fill="white"/>
<path d="M79.0444 28.9915C78.6675 27.8729 78.4791 26.661 78.4791 25.2627C78.4791 23.7712 78.5733 22.5593 78.9502 21.4407C79.8923 18.6441 82.4361 16.9661 85.8277 16.9661C89.3136 16.9661 91.7631 18.6441 92.7052 21.4407C93.0821 22.5593 93.1763 24.1441 93.1763 26.2882C93.1763 26.4746 93.0821 26.5678 92.7994 26.5678H83.3782C83.284 26.5678 83.1898 26.661 83.1898 26.7543C83.1898 27.1271 83.1898 27.4068 83.284 27.5932C83.755 28.9915 84.7914 29.6441 86.5814 29.6441C87.9004 29.6441 88.8425 29.2712 89.502 28.8051C90.0673 28.4322 90.0673 28.2458 90.4441 28.5254L92.8937 30.2966C93.0821 30.4831 93.0821 30.5763 92.8937 30.7627C91.1978 32.6271 88.9367 33.5593 86.1103 33.5593C82.5303 33.5593 79.9865 31.8814 79.0444 28.9915ZM88.5599 23.5848C88.6541 23.5848 88.7483 23.4915 88.7483 23.3983C88.7483 22.9322 88.6541 22.5593 88.5599 22.1865C88.183 21.0678 87.3351 20.4153 86.0161 20.4153C84.7914 20.4153 83.6608 20.9746 83.284 22.1865C83.1898 22.5593 83.0955 22.9322 83.0955 23.3983C83.0955 23.4915 83.1898 23.5848 83.284 23.5848H88.5599Z" fill="white"/>
<path d="M139.906 28.1526V26.8475V10.9068C139.906 10.7204 139.812 10.6271 139.623 10.6271H135.666C135.478 10.6271 135.384 10.7204 135.384 10.9068V29.3644C135.384 32.7204 136.703 33.2797 139.623 33.2797C139.717 33.2797 139.812 33.2797 139.906 33.1865C140 33.0932 140 33 140 33V28.1526H139.906Z" fill="white"/>
</svg>
