<svg width="30" height="30" viewBox="0 0 30 30" fill="none" xmlns="http://www.w3.org/2000/svg">
<path d="M15.75 0C9.54639 0 4.5 5.04697 4.5 11.25C4.5 19.5496 14.8796 29.4141 15.3216 29.8303C15.4424 29.9432 15.5962 30 15.75 30C15.9038 30 16.0576 29.9432 16.1785 29.8303C16.6204 29.4141 27 19.5496 27 11.25C27 5.04697 21.9536 0 15.75 0ZM15.75 17.5C12.3039 17.5 9.49998 14.6961 9.49998 11.25C9.49998 7.80393 12.304 4.99998 15.75 4.99998C19.196 4.99998 22 7.80398 22 11.25C22 14.696 19.1961 17.5 15.75 17.5Z" fill="white"/>
<path d="M13.104 8.42211C11.6576 8.89225 9.78898 10.3604 9.12165 11.2947C9.43455 12.4198 10.1853 14.6047 10.1894 14.498C10.0745 11.929 12.1914 9.5596 13.4836 8.97099L13.104 8.42211Z" fill="white"/>
<circle cx="14.1935" cy="8.35835" r="1.3347" fill="white"/>
<circle cx="17.6653" cy="10.4939" r="1.3347" fill="white"/>
<path d="M16.6957 10C12.9217 10.9956 10.6594 14.2519 10 15.7556L12.4348 17C12.8913 13.5778 15.529 11.5556 17 10.9333L16.6957 10Z" fill="white"/>
</svg>
