<svg width="27" height="28" viewBox="0 0 27 28" fill="none" xmlns="http://www.w3.org/2000/svg">
<path d="M27.0914 12.7962H25.7829V6.77702C25.7829 5.33396 24.6089 4.15999 23.1658 4.15999H21.3936L19.58 0.899175C19.3036 0.400838 18.7776 0.0915247 18.2071 0.0915247C17.9412 0.0915247 17.6774 0.160098 17.4445 0.289345L10.4842 4.15991H2.70951C1.26645 4.15991 0.0924835 5.33388 0.0924835 6.77694V24.7471C0.0924835 26.1902 1.26645 27.3642 2.70951 27.3642H23.1658C24.6089 27.3642 25.7829 26.1902 25.7829 24.7471V19.4696H27.0914V12.7962ZM23.1658 5.20675C23.9719 5.20675 24.6303 5.81911 24.7188 6.60265H22.7518L21.9761 5.20675H23.1658ZM17.9537 1.20425C18.1992 1.06662 18.5295 1.16288 18.665 1.40737L21.5542 6.60217H8.24611L17.9537 1.20425ZM26.0445 18.4228H25.7829H20.9084C19.7077 18.4228 18.731 17.4462 18.731 16.2454V16.0203C18.731 14.8196 19.7076 13.8429 20.9084 13.8429H25.7829H26.0445V18.4228ZM22.5115 16.1759C22.5115 16.8145 21.9944 17.3315 21.3559 17.3315C20.7173 17.3315 20.2003 16.8144 20.2003 16.1759C20.2003 15.5374 20.7174 15.0202 21.3559 15.0202C21.9945 15.0202 22.5115 15.5378 22.5115 16.1759Z" fill="white"/>
</svg>
