<svg width="39" height="39" viewBox="0 0 39 39" fill="none" xmlns="http://www.w3.org/2000/svg">
<path d="M38.0138 21.6319C37.9484 22.1863 37.4528 22.604 36.9134 22.5605L36.681 22.5544C35.0191 22.5544 33.4734 23.5848 32.8349 25.1195C32.1557 26.7499 32.5793 28.6476 33.888 29.84C34.2981 30.2137 34.3474 30.844 34.0002 31.278C33.1048 32.4008 32.0843 33.4166 30.9587 34.3053C30.7505 34.4683 30.4889 34.5465 30.226 34.5243C29.9631 34.5021 29.7181 34.381 29.5398 34.1853C28.4208 32.9493 26.4304 32.484 24.8837 33.12C23.2827 33.7792 22.2472 35.401 22.3106 37.1555C22.3197 37.4209 22.2289 37.6799 22.0563 37.8808C21.8837 38.0817 21.6421 38.2096 21.3798 38.2389C19.9741 38.3956 18.5552 38.3915 17.1504 38.2268C16.8853 38.1962 16.642 38.0646 16.4703 37.859C16.2987 37.6534 16.2119 37.3895 16.2276 37.1215C16.3272 35.3489 15.3069 33.6982 13.6837 33.0146C12.134 32.3605 10.1215 32.8238 8.99643 34.0759C8.81748 34.2752 8.56954 34.398 8.30347 34.4192C8.03739 34.4404 7.77335 34.3584 7.56549 34.1899C6.46352 33.2968 5.46593 32.2806 4.5919 31.161C4.42859 30.9528 4.34955 30.6903 4.37064 30.4259C4.39173 30.1615 4.51139 29.915 4.70561 29.7357C5.99114 28.5483 6.41379 26.6683 5.75718 25.0552C5.09706 23.4405 3.52574 22.4212 1.888 22.4628C1.34964 22.4628 0.714668 22.0658 0.655297 21.5316C0.496304 20.0987 0.497812 18.6506 0.663347 17.2278C0.728756 16.683 1.15341 16.28 1.74963 16.2992C3.58662 16.2992 5.19115 15.2967 5.8402 13.7418C6.17112 12.9417 6.24769 12.0581 6.05939 11.2125C5.87109 10.3669 5.42717 9.60066 4.78863 9.01921C4.59163 8.83896 4.47039 8.58988 4.44964 8.32276C4.42888 8.05564 4.51017 7.79061 4.67693 7.58174C5.57231 6.45898 6.59283 5.44337 7.71844 4.55489C7.92645 4.39129 8.18817 4.31279 8.45125 4.33504C8.71432 4.35729 8.95935 4.47868 9.13731 4.67492C10.2558 5.9129 12.2548 6.37317 13.7914 5.74228C15.3944 5.08051 16.4274 3.45869 16.3665 1.70426C16.3574 1.43884 16.4482 1.17979 16.6208 0.978883C16.7934 0.777976 17.035 0.65009 17.2973 0.620768C18.7032 0.464211 20.1222 0.467934 21.5272 0.631894C21.7924 0.662498 22.0358 0.79415 22.2075 0.999835C22.3791 1.20552 22.4659 1.46958 22.45 1.7377C22.401 2.60242 22.6187 3.46129 23.0732 4.19678C23.5278 4.93226 24.197 5.50843 24.9894 5.84655C26.5451 6.49972 28.5582 6.03542 29.6787 4.7863C29.8574 4.58753 30.1047 4.46485 30.3702 4.44321C30.6357 4.42157 30.8994 4.50262 31.1076 4.66986C32.2118 5.56175 33.2111 6.5776 34.0862 7.69769C34.2497 7.90625 34.3287 8.16933 34.3074 8.43407C34.2861 8.69881 34.1661 8.94561 33.9715 9.12502C32.6885 10.3098 32.2659 12.1914 32.92 13.8041C33.5615 15.3792 35.0905 16.3965 36.8133 16.3965C37.3466 16.3965 37.963 16.7969 38.0223 17.3291C38.1818 18.762 38.1798 20.2096 38.0143 21.6319H38.0138ZM25.1715 28.6238L20.3735 23.7949C19.5527 24.1445 18.6702 24.3241 17.7788 24.323C16.9057 24.3253 16.0409 24.1533 15.2343 23.817C14.4277 23.4806 13.6955 22.9866 13.08 22.3635C12.2545 21.5296 11.6615 20.4919 11.3605 19.3546C11.0594 18.2172 11.0609 17.0201 11.3647 15.8835C11.4553 15.5483 11.7436 15.3144 12.0656 15.3144C12.2035 15.3144 12.4108 15.3569 12.613 15.559C12.613 15.559 14.8641 17.8086 15.6802 18.6304C15.7313 18.6835 15.7935 18.7246 15.8621 18.7508C15.9308 18.7771 16.0044 18.7878 16.0777 18.7822L16.1169 18.7722V18.7772C16.9924 18.6982 18.043 18.5433 18.446 18.4126L18.4978 18.359L18.5481 18.3103C18.6739 17.9103 18.8259 16.8694 18.9054 16.0015L18.9124 15.9498C18.924 15.8789 18.924 15.6815 18.842 15.599C18.0581 14.8101 15.7149 12.4334 15.7149 12.4334C15.5147 12.2324 15.4382 11.9681 15.5061 11.7104C15.5406 11.5848 15.6066 11.4703 15.6978 11.3779C15.789 11.2855 15.9023 11.2183 16.0269 11.1828C16.5979 11.0267 17.1871 10.9475 17.7788 10.9473C19.5534 10.9473 21.2223 11.6425 22.4772 12.9063C23.0963 13.5258 23.5871 14.2627 23.9213 15.0743C24.2554 15.886 24.4262 16.7563 24.4239 17.6349C24.4239 18.5473 24.2427 19.4309 23.8986 20.2466L28.6447 25.0238C29.6509 23.3337 30.181 21.4 30.1783 19.4299C30.1783 13.4045 25.325 8.52048 19.3386 8.52048C13.3527 8.52048 8.49982 13.405 8.49982 19.4299C8.49982 25.4557 13.3522 30.3397 19.3386 30.3397C21.4062 30.3425 23.4311 29.7467 25.1715 28.6233V28.6238Z" fill="#F5D300"/>
</svg>
