<svg width="31" height="34" viewBox="0 0 31 34" fill="none" xmlns="http://www.w3.org/2000/svg">
<path d="M26.3208 6.94934C26.3711 6.89871 26.4214 6.79744 26.4717 6.74681C26.4717 6.69618 26.522 6.64554 26.5723 6.64554V0.417694H8.91196L0.106934 8.56959V33.9367H26.673V20.3671C26.3208 20.924 25.9686 21.3797 25.6164 21.9367C25.4151 22.2405 25.1132 22.4936 24.8113 22.6455V32.0126H1.96857V9.58225H9.717V2.34174H24.761V7.60757C25.2139 7.25314 25.7673 7.05061 26.3208 6.94934ZM7.95599 7.8101H3.52832L8.0063 3.70883L7.95599 7.8101Z" fill="#F5D300"/>
<path d="M30.0441 12.0632C29.7925 11.8607 29.4403 11.9113 29.239 12.2151C28.9875 12.5696 29.2894 12.2151 29.0378 12.6708C28.8868 12.5696 28.7359 12.4683 28.4843 12.3164C28.5346 12.2658 28.585 12.1645 28.6353 12.1139C29.1384 11.4556 29.239 10.7468 29.0881 9.93665C29.0378 9.78475 29.0881 9.58222 29.1887 9.43032C29.39 9.07589 29.6416 8.72146 29.8428 8.36703C30.1447 7.81007 30.1447 7.50627 29.7422 7.1012C29.7422 7.1012 29.5409 6.94931 29.4906 6.89867C29.4403 6.84804 29.1887 6.74677 29.1887 6.74677C28.6856 6.54424 28.434 6.64551 28.0818 7.05057C27.8302 7.35437 27.5787 7.75943 27.3271 8.06323C27.2265 8.16449 27.0755 8.26576 26.8743 8.31639C26.0692 8.41766 25.4151 8.77209 25.0126 9.43032C21.3397 14.3417 17.8177 19.3544 14.2453 24.3164C14.1447 24.4177 14.0944 24.5696 14.0944 24.6708C14.195 25.2278 13.9434 25.6329 13.7925 26.1392C13.5409 26.8987 13.239 27.7088 13.0378 28.4683C12.9875 28.6708 13.0378 29.0253 13.0378 29.2278C13.0378 29.3291 12.9875 29.4303 12.9875 29.481C12.9875 29.5316 12.9372 29.5316 12.9372 29.5822L12.7359 29.886C12.6353 30.0379 12.6353 30.3417 12.8365 30.4936C12.8868 30.5442 12.8868 30.5442 12.9372 30.5442C13.0881 30.5949 13.2894 30.5442 13.4403 30.3923L13.6416 30.1392C13.6416 30.0885 13.6919 30.0885 13.6919 30.0379C13.7422 29.9873 13.7925 29.9366 13.8428 29.9366C14.0944 29.8354 14.3963 29.8354 14.5975 29.6835C15.2516 29.1772 15.9057 28.7215 16.5598 28.1645C16.912 27.8607 17.2642 27.4556 17.868 27.3544C17.9686 27.3544 18.0692 27.2025 18.1699 27.1012C21.3397 22.5949 24.5095 18.1392 27.6793 13.6328C27.8302 13.7341 28.0315 13.886 28.2328 13.9366C27.6793 14.6455 27.2265 15.3544 26.7233 16.0632C25.717 17.5316 24.6604 18.9999 23.6541 20.5189C23.5032 20.7215 23.4026 20.9746 23.6038 21.2278C23.8051 21.481 24.2579 21.6835 24.6101 21.1772C26.0189 19.1518 27.4277 17.1772 28.8365 15.1518C29.5409 14.1392 29.6416 13.9366 30.346 12.924C30.3963 12.5696 30.346 12.3164 30.0441 12.0632ZM26.4214 12.6708L18.0189 24.3164C17.7673 24.6708 17.1133 24.7721 16.7611 24.5189C16.4089 24.2151 16.2579 23.7088 16.5598 23.2531L24.9623 11.6582C25.2139 11.3037 25.7673 11.1518 26.2202 11.4556C26.6227 11.7594 26.7233 12.3164 26.4214 12.6708Z" fill="#F5D300"/>
<path d="M12.9372 29.5822C12.9372 29.6329 12.8868 29.6329 12.8868 29.6835L12.9372 29.5822Z" fill="#F5D300"/>
<path d="M21.9937 5.83545H12.434C12.1321 5.83545 11.7799 6.08861 11.7799 6.49368C11.7799 6.84811 12.0315 7.1519 12.434 7.1519H21.9937C22.1447 7.1519 22.2956 7.10127 22.4466 7.00001C22.5472 6.89874 22.5975 6.74684 22.5975 6.54431C22.5975 6.13925 22.3459 5.83545 21.9937 5.83545Z" fill="#F5D300"/>
<path d="M18.8239 15.5569C18.5723 16.0126 18.2201 16.367 17.9686 16.8227H3.88053C3.57864 16.8227 3.22644 16.5696 3.22644 16.1645C3.22644 15.8607 3.47801 15.5063 3.88053 15.5063H18.8742V15.5569H18.8239Z" fill="#F5D300"/>
<path d="M14.5975 21.5822C14.3459 22.0379 13.9937 22.3924 13.6918 22.8481H3.88053C3.57864 22.8481 3.22644 22.5949 3.22644 22.2405C3.22644 21.9367 3.47801 21.5822 3.88053 21.5822H14.5975Z" fill="#F5D300"/>
<path d="M11.8302 30.3923C11.8302 30.6455 11.6793 30.8987 11.478 30.9493C11.4277 30.9493 11.3774 30.9999 11.3271 30.9999H8.10696C7.85539 30.9999 7.60382 30.7974 7.5535 30.443C7.5535 30.3417 7.5535 30.2911 7.5535 30.2404C7.5535 30.2911 7.50319 30.3417 7.50319 30.3923C7.35225 30.6961 7.2013 30.7974 6.94973 30.7974C6.74847 30.7974 6.4969 30.5949 6.44659 30.3417C6.44659 30.2911 6.44659 30.2404 6.39627 30.1898C6.34596 30.2404 6.34596 30.3417 6.29564 30.443C6.29564 30.5442 6.24533 30.6455 6.19501 30.7468C6.09438 30.9999 5.74218 31.1012 5.49061 30.9493C5.4403 30.8987 5.38998 30.848 5.33967 30.7974C5.23904 30.9493 5.0881 30.9999 4.88684 30.9999C4.83652 30.9999 4.83652 30.9999 4.78621 30.9999C4.58495 30.9493 4.33338 30.7468 4.33338 30.4936C4.33338 30.3417 4.28306 30.2404 4.28306 30.1392V30.443C4.28306 30.7468 4.03149 31.0506 3.72961 31.0506C3.42772 31.0506 3.17615 30.7974 3.17615 30.443V26.6961C3.17615 26.5949 3.22646 26.4936 3.27678 26.3923C3.37741 26.2404 3.77992 25.9366 4.08181 26.0379C4.53464 26.1898 4.88684 26.6961 5.18872 28.8227C5.23904 28.7721 5.33967 28.7721 5.4403 28.7721C5.54093 28.7721 5.64155 28.8227 5.74218 28.924C5.7925 28.924 5.7925 28.9746 5.84281 28.9746C6.04407 28.7721 6.29564 28.7215 6.4969 28.7215C6.64784 28.7215 6.79879 28.7721 6.94973 28.924C7.2013 28.6202 7.45287 28.4177 7.75476 28.4683C8.30822 28.5696 8.45916 29.1772 8.55979 29.8354H11.3271C11.5787 29.8354 11.8302 30.0885 11.8302 30.3923Z" fill="#F5D300"/>
</svg>
