<svg width="25" height="40" viewBox="0 0 25 40" fill="none" xmlns="http://www.w3.org/2000/svg">
<path fill-rule="evenodd" clip-rule="evenodd" d="M10.3839 24.4405C10.3839 24.1627 10.2821 23.9209 10.0773 23.7169C9.87242 23.5119 9.63071 23.4097 9.35343 23.4097C9.07619 23.4097 8.83403 23.5119 8.6296 23.7169C8.42472 23.9213 8.32293 24.1632 8.32293 24.4405C8.32293 24.7187 8.42472 24.967 8.6296 25.1864C8.83448 25.3769 9.07619 25.4717 9.35343 25.4717C9.63071 25.4717 9.87282 25.3765 10.0773 25.1864C10.2817 24.967 10.3839 24.7182 10.3839 24.4405ZM0.623012 3.04806C0.623012 2.2437 0.929628 1.56355 1.54427 1.00801C2.15841 0.436665 2.89672 0.151855 3.75967 0.151855H4.85637V0.195754C4.22729 0.297982 3.67146 0.569171 3.1889 1.00801C2.57476 1.56396 2.26764 2.2437 2.26764 3.04806V36.7276C2.26764 37.5316 2.57431 38.2192 3.1889 38.7898C3.67146 39.2288 4.22729 39.4992 4.85637 39.6015V39.6455H3.75967C2.89672 39.6455 2.15841 39.3605 1.54382 38.7898C0.929226 38.2192 0.622559 37.5316 0.622559 36.7276L0.623012 3.04806ZM23.2374 32.7341V6.7995H4.57124V32.7341H23.2374ZM14.9678 37.2319C15.1727 37.0415 15.3122 36.8222 15.385 36.5736C15.414 36.442 15.4289 36.3033 15.4289 36.1569C15.4289 35.7326 15.2753 35.3671 14.9678 35.0597C14.6756 34.7671 14.3177 34.6212 13.8934 34.6212C13.4692 34.6212 13.1034 34.7671 12.7967 35.0597C12.5046 35.3671 12.3581 35.7326 12.3581 36.1569C12.3581 36.3326 12.387 36.5007 12.4454 36.6617C12.5046 36.8663 12.6208 37.0562 12.7967 37.2319C12.9029 37.3377 13.0161 37.4258 13.1367 37.4952C13.3631 37.6268 13.6158 37.6926 13.8934 37.6926C14.2124 37.6926 14.4941 37.605 14.7384 37.4293C14.8187 37.3736 14.8959 37.3078 14.9678 37.2319ZM18.6528 13.2287C18.6818 13.2725 18.6967 13.3019 18.6967 13.3164C18.6967 13.3454 18.6822 13.3818 18.6528 13.4261L16.4155 15.6202C16.401 16.1174 16.5691 16.5343 16.92 16.8708C17.2561 17.2219 17.6732 17.3829 18.1703 17.354L20.3637 15.1375C20.4366 15.0936 20.4958 15.0936 20.5392 15.1375L20.5831 15.1818C20.8024 15.6935 20.9121 16.2131 20.9121 16.7397C20.9121 17.8222 20.5318 18.7363 19.7715 19.4822C19.0108 20.2427 18.0975 20.6232 17.0297 20.6232C16.6493 20.6232 16.262 20.5648 15.8671 20.4481L11.8316 24.4852C11.8171 25.1579 11.5675 25.7284 11.0854 26.1962C10.6028 26.6793 10.0255 26.9202 9.35297 26.9202C8.66598 26.9202 8.08077 26.6789 7.5982 26.1962C7.11564 25.7135 6.87438 25.1281 6.87438 24.4409C6.87438 23.7537 7.10819 23.1688 7.57627 22.6856C8.05884 22.2178 8.63705 21.9765 9.30955 21.962L13.3451 17.9249C13.2284 17.5589 13.1696 17.1644 13.1696 16.7401C13.1696 15.6869 13.55 14.7729 14.3102 13.9975C15.0564 13.2515 15.9632 12.8785 17.0306 12.8785C17.571 12.8785 18.0983 12.9882 18.6099 13.2076H18.6322L18.6528 13.2287ZM16.0869 3.443C16.0869 3.32583 16.0356 3.2236 15.9334 3.1358C15.8308 3.04806 15.7211 3.00416 15.6044 3.00416H12.226C12.0804 3.00416 11.9707 3.04806 11.897 3.1358C11.7952 3.2236 11.7434 3.32629 11.7434 3.443V3.48689C11.7434 3.61854 11.7947 3.72821 11.897 3.81601C11.9707 3.90375 12.0804 3.94765 12.226 3.94765H15.6044C15.7211 3.94765 15.8308 3.90375 15.9334 3.81601C16.0352 3.72821 16.0869 3.61854 16.0869 3.48689V3.443ZM23.8512 1.00755C24.4656 1.56355 24.7735 2.24325 24.7735 3.0476V36.7271C24.7735 37.5311 24.4661 38.2187 23.8512 38.7893C23.2379 39.36 22.4993 39.645 21.6364 39.645H6.17245C5.30955 39.645 4.57124 39.36 3.95665 38.7893C3.342 38.2187 3.03539 37.5311 3.03539 36.7271V3.04806C3.03539 2.2437 3.342 1.56355 3.95665 1.00801C4.57124 0.436665 5.30955 0.151855 6.17245 0.151855H21.6364C22.4993 0.151855 23.2374 0.436665 23.8512 1.00755Z" fill="#F5D300"/>
</svg>
