<svg width="20" height="20" viewBox="0 0 20 20" fill="none" xmlns="http://www.w3.org/2000/svg">
<path d="M10.5 0C6.36426 0 3 3.36465 3 7.5C3 13.033 9.91977 19.6094 10.2144 19.8869C10.2949 19.9621 10.3975 20 10.5 20C10.6025 20 10.7051 19.9621 10.7857 19.8869C11.0802 19.6094 18 13.033 18 7.5C18 3.36465 14.6357 0 10.5 0ZM10.5 11.6667C8.20262 11.6667 6.33332 9.79738 6.33332 7.5C6.33332 5.20262 8.20266 3.33332 10.5 3.33332C12.7973 3.33332 14.6667 5.20266 14.6667 7.5C14.6667 9.79734 12.7974 11.6667 10.5 11.6667Z" fill="white"/>
<path d="M8.81493 5.95923C7.82278 6.2817 6.5411 7.28874 6.08336 7.92959C6.29798 8.70132 6.81293 10.2 6.81574 10.1268C6.73695 8.36469 8.18898 6.73945 9.0753 6.33571L8.81493 5.95923Z" fill="white"/>
<circle cx="9.56222" cy="5.91549" r="0.915492" fill="white"/>
<circle cx="11.9438" cy="7.3803" r="0.915492" fill="white"/>
<path d="M11.0282 7.38028C8.75774 7.96619 7.39671 9.88262 7 10.7676L8.46479 11.5C8.73943 9.48591 10.3263 8.29577 11.2113 7.92957L11.0282 7.38028Z" fill="white"/>
</svg>
