<svg width="23" height="30" viewBox="0 0 23 30" fill="none" xmlns="http://www.w3.org/2000/svg">
<path d="M11.75 0C5.54639 0 0.5 5.04697 0.5 11.25C0.5 19.5496 10.8796 29.4141 11.3216 29.8303C11.4424 29.9432 11.5962 30 11.75 30C11.9038 30 12.0576 29.9432 12.1785 29.8303C12.6204 29.4141 23 19.5496 23 11.25C23 5.04697 17.9536 0 11.75 0ZM11.75 17.5C8.30393 17.5 5.49998 14.6961 5.49998 11.25C5.49998 7.80393 8.30398 4.99998 11.75 4.99998C15.196 4.99998 18 7.80398 18 11.25C18 14.696 15.1961 17.5 11.75 17.5Z" fill="white"/>
</svg>
