<svg width="30" height="30" viewBox="0 0 30 30" fill="none" xmlns="http://www.w3.org/2000/svg">
<path d="M21.4286 18.8571H20.0571L19.5429 18.3429C21.2572 16.4571 22.2858 13.8857 22.2858 11.1429C22.2857 4.97143 17.3143 0 11.1429 0C4.97143 0 0 4.97143 0 11.1429C0 17.3143 4.97143 22.2857 11.1429 22.2857C13.8857 22.2857 16.4571 21.2571 18.3429 19.5429L18.8571 20.0571V21.4285L27.4286 30L30 27.4286L21.4286 18.8571ZM11.1429 18.8571C6.85714 18.8571 3.42857 15.4286 3.42857 11.1429C3.42857 6.85714 6.85714 3.42857 11.1429 3.42857C15.4286 3.42857 18.8571 6.85714 18.8571 11.1429C18.8571 15.4286 15.4286 18.8571 11.1429 18.8571Z" fill="white"/>
</svg>
