<svg width="32" height="29" viewBox="0 0 32 29" fill="none" xmlns="http://www.w3.org/2000/svg">
<path d="M24.4654 28.6699H4.2093C1.97132 28.6699 0.158485 26.8876 0.158485 24.6917V4.79997C0.158485 2.60352 1.97132 0.821777 4.2093 0.821777H24.4654C26.7029 0.821777 28.5162 2.60402 28.5162 4.79997V24.6917C28.5162 26.8892 26.7029 28.6699 24.4654 28.6699ZM4.81761 6.98821C4.81761 7.64796 5.36151 8.18184 6.0327 8.18184H14.1655C14.8367 8.18184 15.3811 7.64796 15.3811 6.98821C15.3811 6.32847 14.8367 5.79483 14.1655 5.79483H6.0327C5.36151 5.79483 4.8171 6.32847 4.8171 6.98821H4.81761ZM4.81761 12.16C4.81761 12.8198 5.36151 13.3539 6.0327 13.3539H14.1348C14.806 13.3539 15.3504 12.8198 15.3504 12.16C15.3504 11.5003 14.806 10.9667 14.1348 10.9667H6.0327C5.36151 10.9667 4.8171 11.5003 4.8171 12.16H4.81761ZM23.8576 22.5032C23.8576 21.8429 23.3132 21.3098 22.6425 21.3098H6.0327C5.36151 21.3098 4.8171 21.8429 4.8171 22.5032C4.8171 23.1624 5.36151 23.6971 6.0327 23.6971H22.6425C23.3132 23.6971 23.8576 23.1624 23.8576 22.5032ZM23.8576 17.3321C23.8576 16.6714 23.3132 16.1382 22.6425 16.1382H6.0327C5.36151 16.1382 4.8171 16.6714 4.8171 17.3321C4.8171 17.9903 5.36151 18.525 6.0327 18.525H22.6425C23.3132 18.525 23.8576 17.9903 23.8576 17.3321ZM25.5482 7.4446C25.3671 7.26857 25.1252 7.17017 24.8735 7.17017C24.6217 7.17017 24.3798 7.26857 24.1987 7.4446L20.9031 10.6816L19.1195 8.93367C18.9385 8.75778 18.6968 8.6594 18.4452 8.65949C18.1936 8.65959 17.9519 8.75814 17.7711 8.93417C17.6827 9.02011 17.6123 9.12316 17.5643 9.23703C17.5163 9.35089 17.4916 9.4733 17.4916 9.59699C17.4916 9.72069 17.5163 9.84309 17.5643 9.95696C17.6123 10.0708 17.6827 10.1739 17.7711 10.2598L20.2304 12.6698C20.4166 12.8521 20.6611 12.9438 20.9046 12.9438C21.1492 12.9438 21.3937 12.8526 21.5789 12.6693L25.5487 8.77001C25.6371 8.68406 25.7074 8.58126 25.7554 8.4674C25.8034 8.35353 25.8282 8.23113 25.8282 8.10743C25.8282 7.98373 25.8034 7.86108 25.7554 7.74721C25.7074 7.63334 25.6371 7.53054 25.5487 7.4446H25.5482ZM31.3524 7.55635V25.1518C31.3524 27.0941 29.7494 28.6699 27.7685 28.6699H25.7489C27.9864 28.6699 29.7997 26.8886 29.7997 24.6917V4.79997C29.7997 4.74833 29.7856 4.69982 29.7841 4.64817C30.7301 5.28108 31.3524 6.34673 31.3524 7.55635Z" fill="#F5D300"/>
</svg>
