<svg width="24" height="48" viewBox="0 0 24 48" fill="none" xmlns="http://www.w3.org/2000/svg">
<path d="M1.94111 34.5357L4.76878 34.5342L7.28803 39.3646H2.71847C1.31369 39.3646 0.165009 38.1907 0.165009 36.7568V3.33267C0.165009 1.89824 1.31369 0.7229 2.71847 0.7229H19.5627C20.9675 0.7229 22.1152 1.89824 22.1152 3.33267V27.7732H20.3401V4.86278H1.94111V34.5357ZM8.13532 2.92202C8.13532 3.00493 8.16791 3.08448 8.22598 3.14329C8.28405 3.20211 8.36288 3.23547 8.44526 3.236H13.8355C13.9176 3.23533 13.9961 3.2019 14.0537 3.14304C14.1113 3.08419 14.1434 3.00465 14.1429 2.92202C14.1435 2.88091 14.136 2.84006 14.1209 2.80187C14.1058 2.76367 14.0833 2.72871 14.0548 2.69926C14.0263 2.66982 13.9923 2.64648 13.9547 2.63029C13.9172 2.6141 13.8768 2.60553 13.836 2.60507H8.44476C8.36193 2.60587 8.2828 2.6396 8.2247 2.69902C8.16661 2.75843 8.13429 2.83867 8.13482 2.92202H8.13532ZM23.3318 33.7352C23.3318 33.7402 23.3293 33.7427 23.3293 33.7478V41.7578C23.3293 41.7578 23.3293 47.3067 17.2488 47.3052C13.4581 47.3067 11.8526 45.494 11.3534 44.2576C11.3484 44.25 7.58337 37.524 6.79595 35.9741C6.01004 34.4237 6.96954 33.5286 8.10715 33.7985C8.98665 34.0045 9.80979 35.6567 11.1703 37.1393V29.1038C8.36425 28.5367 6.23998 26.0071 6.23998 22.9747C6.23998 19.5266 8.98313 16.7215 12.3532 16.7215C15.7248 16.7215 18.4679 19.5256 18.4679 22.9747C18.4679 25.881 16.5087 28.3089 13.8752 29.0061V32.451H14.2822V30.9808C14.2822 30.2638 14.8518 29.6774 15.5577 29.6774H15.6956C16.4 29.6774 16.97 30.2638 16.97 30.9808V32.451H17.4631V30.9808C17.4631 30.2638 18.0352 29.6774 18.7376 29.6774H18.8775C19.5814 29.6774 20.1504 30.2638 20.1504 30.9808V32.451H20.6425V30.9808C20.6425 30.2638 21.2121 29.6774 21.9195 29.6774H22.0548C22.7607 29.6774 23.3318 30.2638 23.3318 30.9817V33.7352ZM13.8777 23.929V25.1711C14.2235 24.9204 14.505 24.5906 14.6992 24.2089C14.8934 23.8271 14.9947 23.4045 14.9947 22.9757C14.9947 21.4871 13.8098 20.2769 12.3532 20.2769C10.8981 20.2769 9.71369 21.4886 9.71369 22.9757C9.71381 23.4718 9.84982 23.9583 10.1068 24.3817C10.3638 24.8051 10.7317 25.1489 11.1703 25.3755V23.9285C11.1703 23.2014 11.7444 22.6142 12.4533 22.6142L12.5922 22.6157C13.3041 22.6142 13.8772 23.2014 13.8772 23.929H13.8777ZM11.1688 28.4419V26.7529C10.378 26.4912 9.68966 25.9849 9.20191 25.3061C8.71416 24.6273 8.45198 23.8109 8.45281 22.9732C8.45281 20.7747 10.2022 18.9854 12.3522 18.9854C14.5021 18.9854 16.2526 20.7747 16.2526 22.9732C16.2543 23.7514 16.0303 24.513 15.608 25.1649C15.1857 25.8168 14.5835 26.3307 13.8752 26.6431V28.3342C15.0217 27.9902 16.0269 27.2826 16.7411 26.3167C17.4552 25.3509 17.84 24.1786 17.838 22.9747C17.838 19.882 15.3776 17.3645 12.3537 17.3645C9.32979 17.3645 6.86941 19.882 6.86941 22.9747C6.86941 25.6496 8.71495 27.886 11.1688 28.4419Z" fill="#F5D300"/>
</svg>
