<svg width="33" height="35" viewBox="0 0 33 35" fill="none" xmlns="http://www.w3.org/2000/svg">
<path d="M32.3532 18.1827L32.3552 18.3827C32.3552 19.3832 31.5552 20.1959 30.5711 20.1959H26.8015C25.8154 20.1959 25.0179 19.3857 25.0179 18.3827V18.1854C25.0179 17.1829 25.8159 16.3717 26.8 16.3717H30.5711C31.5557 16.3717 32.3552 17.1822 32.3532 18.1827ZM32.3542 13.6586V13.8603C32.3542 14.8613 31.5567 15.6713 30.5721 15.6713H26.8C25.8169 15.6713 25.0169 14.8634 25.0169 13.8603V13.6638C25.0169 12.6602 25.8169 11.8496 26.8025 11.8496H27.2438V11.8476H28.2174V4.41982L11.9633 4.41759V8.47292C13.5195 7.58431 14.8835 6.81629 15.5472 6.4654C17.6544 5.353 18.8705 6.70831 18.5057 8.31692C18.2249 9.55742 16.1515 10.9245 13.9673 12.641C13.5361 12.9802 12.7799 13.4865 11.9633 14.0131V30.4693H28.2174V29.2426H26.8015C25.8154 29.2426 25.0179 28.4298 25.0179 27.4313V27.2289C25.0179 26.2289 25.8133 25.4181 26.8 25.4181H30.5711C31.5557 25.4181 32.3532 26.2268 32.3567 27.2284L32.3542 27.4247C32.3552 28.4272 31.5567 29.2388 30.5701 29.2388H30.1298V29.2416H29.7867V32.4182C29.7867 33.676 28.7713 34.7078 27.5306 34.7078H12.6491C11.4093 34.7078 10.394 33.676 10.394 32.4182V29.8132H7.68504C7.68504 29.8132 3.68152 29.7979 1.51045 26.4637C1.48882 26.4298 1.46517 26.398 1.44303 26.3645C1.35142 26.2149 1.26516 26.0622 1.18441 25.9064C1.11182 25.7698 1.04336 25.6309 0.979131 25.4901C0.916238 25.3534 0.853848 25.2181 0.797496 25.0723C0.679037 24.7679 0.578235 24.4569 0.495606 24.1407C0.470449 24.0435 0.451834 23.9371 0.429193 23.8368C0.361752 23.5402 0.307357 23.2407 0.266171 22.9391C0.249633 22.8178 0.23454 22.6964 0.22089 22.5747C0.172935 22.1272 0.148079 21.6774 0.146423 21.2273C0.146423 15.8714 2.60881 13.6036 4.28932 12.9013C4.29586 12.8963 7.39171 11.0957 10.394 9.37062V3.07735C10.394 1.81659 11.4093 0.785767 12.6491 0.785767H27.5306C28.7713 0.785767 29.7867 1.8171 29.7867 3.07735V11.8486H30.5731C31.5577 11.8486 32.3552 12.6611 32.3542 13.6586ZM18.963 32.4182C18.963 33.0532 19.4662 33.5646 20.0886 33.5646C20.2373 33.5643 20.3846 33.5343 20.5218 33.4766C20.6591 33.4189 20.7837 33.3344 20.8885 33.2282C20.9933 33.1219 21.0762 32.9959 21.1325 32.8573C21.1888 32.7187 21.2174 32.5704 21.2166 32.4207C21.2176 32.2708 21.1892 32.122 21.133 31.9831C21.0768 31.8442 20.994 31.7179 20.8892 31.6113C20.7844 31.5047 20.6598 31.4199 20.5224 31.3618C20.385 31.3037 20.2376 31.2735 20.0886 31.2728C19.4672 31.2728 18.964 31.7879 18.963 32.4182ZM22.7427 2.7159C22.7431 2.67962 22.7364 2.64375 22.723 2.61008C22.7096 2.57642 22.6897 2.54573 22.6644 2.51984C22.6392 2.49396 22.6091 2.47315 22.5759 2.45903C22.5427 2.4449 22.507 2.43771 22.471 2.43752H17.7097C17.5588 2.43752 17.436 2.56096 17.436 2.7159C17.436 2.8683 17.5588 2.99181 17.7097 2.99181H22.471C22.6209 2.99181 22.7427 2.8683 22.7427 2.7159ZM32.3532 22.7092L32.3542 22.9082C32.3522 23.9082 31.5567 24.719 30.5701 24.719H26.8C25.8143 24.719 25.0169 23.9088 25.0169 22.9082V22.7092C25.0169 21.7077 25.8169 20.895 26.8 20.895H30.5711C31.5578 20.895 32.3532 21.7077 32.3532 22.7092Z" fill="#F5D300"/>
</svg>
