<svg width="39" height="39" viewBox="0 0 39 39" fill="none" xmlns="http://www.w3.org/2000/svg">
<path d="M38.0138 21.6319C37.9484 22.1863 37.4528 22.6041 36.9134 22.5605L36.681 22.5545C35.0191 22.5545 33.4734 23.5849 32.8349 25.1195C32.1557 26.7499 32.5793 28.6476 33.888 29.84C34.2981 30.2137 34.3474 30.8441 34.0002 31.278C33.1048 32.4009 32.0843 33.4166 30.9587 34.3053C30.7505 34.4684 30.4889 34.5466 30.226 34.5243C29.9631 34.5021 29.7181 34.381 29.5398 34.1853C28.4208 32.9494 26.4304 32.484 24.8837 33.12C23.2827 33.7792 22.2473 35.4011 22.3106 37.1555C22.3197 37.4209 22.2289 37.68 22.0563 37.8809C21.8837 38.0818 21.6421 38.2097 21.3798 38.239C19.9741 38.3956 18.5552 38.3916 17.1504 38.2269C16.8853 38.1963 16.642 38.0646 16.4703 37.859C16.2987 37.6535 16.2119 37.3896 16.2276 37.1216C16.3273 35.3489 15.3069 33.6982 13.6837 33.0147C12.134 32.3605 10.1215 32.8238 8.99643 34.076C8.81748 34.2753 8.56955 34.3981 8.30347 34.4193C8.03739 34.4404 7.77335 34.3584 7.56549 34.1899C6.46352 33.2968 5.46593 32.2807 4.5919 31.161C4.42859 30.9528 4.34955 30.6903 4.37064 30.4259C4.39173 30.1616 4.51139 29.915 4.70561 29.7357C5.99115 28.5484 6.41379 26.6684 5.75718 25.0552C5.09706 23.4405 3.52574 22.4213 1.888 22.4628C1.34964 22.4628 0.714668 22.0658 0.655297 21.5317C0.496304 20.0987 0.497812 18.6506 0.663347 17.2279C0.728756 16.6831 1.15341 16.28 1.74963 16.2993C3.58662 16.2993 5.19115 15.2967 5.8402 13.7418C6.17112 12.9417 6.24769 12.0582 6.05939 11.2125C5.8711 10.3669 5.42717 9.60069 4.78863 9.01924C4.59163 8.83899 4.4704 8.58991 4.44964 8.32279C4.42888 8.05567 4.51017 7.79064 4.67693 7.58177C5.57231 6.45901 6.59283 5.4434 7.71844 4.55492C7.92645 4.39132 8.18817 4.31282 8.45125 4.33507C8.71433 4.35732 8.95936 4.47871 9.13731 4.67495C10.2558 5.91293 12.2548 6.3732 13.7914 5.74231C15.3944 5.08054 16.4274 3.45872 16.3665 1.70429C16.3574 1.43887 16.4482 1.17982 16.6208 0.978913C16.7934 0.778006 17.035 0.650121 17.2973 0.620799C18.7032 0.464242 20.1222 0.467965 21.5273 0.631924C21.7924 0.662528 22.0358 0.79418 22.2075 0.999866C22.3791 1.20555 22.4659 1.46961 22.45 1.73773C22.401 2.60245 22.6187 3.46132 23.0732 4.19681C23.5278 4.9323 24.197 5.50847 24.9894 5.84658C26.5451 6.49975 28.5582 6.03545 29.6787 4.78633C29.8574 4.58756 30.1047 4.46488 30.3702 4.44324C30.6357 4.4216 30.8995 4.50265 31.1076 4.66989C32.2118 5.56178 33.2111 6.57764 34.0862 7.69772C34.2497 7.90628 34.3287 8.16936 34.3074 8.4341C34.2861 8.69884 34.1661 8.94564 33.9715 9.12505C32.6885 10.3099 32.2659 12.1914 32.92 13.8041C33.5615 15.3793 35.0905 16.3965 36.8133 16.3965C37.3466 16.3965 37.963 16.797 38.0224 17.3291C38.1819 18.762 38.1798 20.2096 38.0143 21.6319H38.0138ZM25.1715 28.6238L20.3735 23.7949C19.5527 24.1446 18.6702 24.3241 17.7788 24.323C16.9057 24.3253 16.0409 24.1534 15.2343 23.817C14.4278 23.4807 13.6955 22.9866 13.08 22.3635C12.2545 21.5296 11.6615 20.492 11.3605 19.3546C11.0594 18.2172 11.0609 17.0202 11.3647 15.8835C11.4553 15.5484 11.7436 15.3144 12.0656 15.3144C12.2035 15.3144 12.4108 15.357 12.613 15.559C12.613 15.559 14.8641 17.8086 15.6802 18.6304C15.7313 18.6835 15.7935 18.7246 15.8621 18.7509C15.9308 18.7771 16.0044 18.7878 16.0777 18.7823L16.1169 18.7722V18.7773C16.9924 18.6983 18.043 18.5433 18.446 18.4127L18.4978 18.359L18.5481 18.3104C18.6739 17.9104 18.8259 16.8694 18.9054 16.0015L18.9124 15.9499C18.924 15.879 18.924 15.6815 18.842 15.599C18.0581 14.8101 15.7149 12.4334 15.7149 12.4334C15.5147 12.2324 15.4382 11.9681 15.5061 11.7104C15.5406 11.5849 15.6066 11.4704 15.6978 11.3779C15.789 11.2855 15.9023 11.2183 16.0269 11.1828C16.5979 11.0267 17.1871 10.9475 17.7788 10.9473C19.5534 10.9473 21.2223 11.6425 22.4772 12.9063C23.0963 13.5258 23.5871 14.2627 23.9213 15.0744C24.2554 15.886 24.4263 16.7564 24.4239 17.6349C24.4239 18.5473 24.2427 19.4309 23.8986 20.2466L28.6447 25.0238C29.6509 23.3338 30.181 21.4 30.1783 19.4299C30.1783 13.4046 25.325 8.52051 19.3386 8.52051C13.3527 8.52051 8.49983 13.4051 8.49983 19.4299C8.49983 25.4557 13.3522 30.3398 19.3386 30.3398C21.4063 30.3425 23.4311 29.7467 25.1715 28.6233V28.6238Z" fill="#F5D300"/>
</svg>
