<svg width="30" height="30" viewBox="0 0 30 30" fill="none" xmlns="http://www.w3.org/2000/svg">
<g clip-path="url(#clip0)">
<path d="M30.0914 12.7962H28.7829V6.77702C28.7829 5.33396 27.6089 4.15999 26.1658 4.15999H24.3936L22.58 0.899175C22.3036 0.400838 21.7776 0.0915247 21.2071 0.0915247C20.9412 0.0915247 20.6774 0.160098 20.4445 0.289345L13.4842 4.15991H5.70951C4.26645 4.15991 3.09248 5.33388 3.09248 6.77694V24.7471C3.09248 26.1902 4.26645 27.3642 5.70951 27.3642H26.1658C27.6089 27.3642 28.7829 26.1902 28.7829 24.7471V19.4696H30.0914V12.7962ZM26.1658 5.20675C26.9719 5.20675 27.6303 5.81911 27.7188 6.60265H25.7518L24.9761 5.20675H26.1658ZM20.9537 1.20425C21.1992 1.06662 21.5295 1.16288 21.665 1.40737L24.5542 6.60217H11.2461L20.9537 1.20425ZM29.0445 18.4228H28.7829H23.9084C22.7077 18.4228 21.731 17.4462 21.731 16.2454V16.0203C21.731 14.8196 22.7076 13.8429 23.9084 13.8429H28.7829H29.0445V18.4228ZM25.5115 16.1759C25.5115 16.8145 24.9944 17.3315 24.3559 17.3315C23.7173 17.3315 23.2003 16.8144 23.2003 16.1759C23.2003 15.5374 23.7174 15.0202 24.3559 15.0202C24.9945 15.0202 25.5115 15.5378 25.5115 16.1759Z" fill="white"/>
</g>
<circle cx="7.72727" cy="22.2727" r="7.47727" fill="white" stroke="#143354" stroke-width="0.5"/>
<rect x="6.74377" y="16.8636" width="1.96694" height="10.8182" rx="0.5" fill="#143354"/>
<rect x="13.1364" y="21.2893" width="1.96694" height="10.8182" rx="0.5" transform="rotate(90 13.1364 21.2893)" fill="#143354"/>
<defs>
<clipPath id="clip0">
<rect width="27.2727" height="27.2727" fill="white" transform="translate(2.72726)"/>
</clipPath>
</defs>
</svg>
