<svg width="20" height="20" viewBox="0 0 20 20" fill="none" xmlns="http://www.w3.org/2000/svg">
<g clip-path="url(#clip0)">
<path d="M20.0608 8.53085H19.1884V4.51803C19.1884 3.556 18.4058 2.77335 17.4438 2.77335H16.2623L15.0532 0.599471C14.8689 0.267245 14.5182 0.0610368 14.1379 0.0610368C13.9606 0.0610368 13.7848 0.106752 13.6295 0.192917L8.98933 2.77329H3.80621C2.84417 2.77329 2.06152 3.55594 2.06152 4.51798V16.4981C2.06152 17.4602 2.84417 18.2428 3.80621 18.2428H17.4438C18.4058 18.2428 19.1884 17.4602 19.1884 16.4981V12.9798H20.0608V8.53085ZM17.4438 3.47119C17.9811 3.47119 18.4201 3.87943 18.479 4.40179H17.1677L16.6506 3.47119H17.4438ZM13.969 0.802856C14.1326 0.711099 14.3529 0.775275 14.4432 0.938265L16.3693 4.40146H7.49727L13.969 0.802856ZM19.3629 12.2819H19.1884H15.9388C15.1383 12.2819 14.4872 11.6308 14.4872 10.8303V10.6802C14.4872 9.87978 15.1383 9.22864 15.9388 9.22864H19.1884H19.3629V12.2819ZM17.0076 10.7839C17.0076 11.2097 16.6628 11.5544 16.2371 11.5544C15.8114 11.5544 15.4667 11.2096 15.4667 10.7839C15.4667 10.3583 15.8115 10.0135 16.2371 10.0135C16.6629 10.0135 17.0076 10.3585 17.0076 10.7839Z" fill="white"/>
</g>
<circle cx="5.15152" cy="14.8485" r="4.90152" fill="white" stroke="#143354" stroke-width="0.5"/>
<rect x="4.49585" y="11.2424" width="1.31129" height="7.21212" rx="0.5" fill="#143354"/>
<rect x="8.75757" y="14.1928" width="1.31129" height="7.21212" rx="0.5" transform="rotate(90 8.75757 14.1928)" fill="#143354"/>
<defs>
<clipPath id="clip0">
<rect width="18.1818" height="18.1818" fill="white" transform="translate(1.81812)"/>
</clipPath>
</defs>
</svg>
